<svg version="1.0" xmlns="http://www.w3.org/2000/svg" width="300.000000pt" height="358.000000pt" viewBox="0 0 300.000000 358.000000" preserveAspectRatio="xMidYMid meet">
            <g transform="translate(0.000000,358.000000) scale(0.050000,-0.050000)" fill="#000000" stroke="none">
                <path d="M2681 7103 c-100 -43 -144 -76 -192 -145 -54 -77 -75 -91 -167 -108
-212 -42 -409 -291 -465 -590 -12 -60 -29 -125 -39 -144 -10 -18 -22 -156 -27
-305 -5 -149 -14 -279 -19 -288 -15 -24 61 -472 88 -524 13 -23 36 -87 53
-142 16 -54 42 -104 57 -110 15 -6 38 -61 51 -123 13 -61 40 -135 61 -163 48
-65 64 -181 25 -181 -37 0 -33 -34 13 -137 22 -48 40 -116 40 -152 0 -49 12
-70 48 -87 39 -17 60 -59 102 -198 30 -97 62 -186 73 -199 49 -61 -53 -256
-175 -334 -74 -47 -121 -60 -281 -73 -168 -15 -211 -27 -345 -97 -196 -103
-278 -144 -462 -231 -82 -39 -181 -99 -219 -132 -77 -69 -284 -200 -481 -305
-112 -59 -298 -245 -296 -295 2 -40 -12 -66 -64 -120 l-60 -61 0 -518 c0 -588
-15 -526 195 -796 164 -210 477 -383 925 -512 97 -28 335 -32 1951 -32 2033
-1 1976 -5 2107 123 66 64 72 66 240 66 155 0 182 6 272 59 55 33 106 58 112
56 7 -2 42 34 79 79 l66 82 7 332 c4 183 15 400 25 482 43 358 -165 723 -555
973 -61 39 -173 125 -250 191 -77 66 -176 136 -222 156 -45 19 -122 65 -172
102 -49 37 -144 92 -209 124 -199 94 -345 191 -361 239 -18 53 -45 -105 -48
-281 -1 -71 -13 -118 -36 -140 -29 -30 -30 -35 -2 -40 22 -4 28 -20 20 -49
-10 -40 -12 -40 -24 -6 -10 28 -20 13 -39 -61 -45 -165 -161 -327 -258 -357
-25 -8 -41 -20 -35 -26 7 -6 2 -23 -11 -38 -12 -15 -15 -27 -7 -27 9 0 -7 -18
-35 -40 -28 -22 -59 -40 -68 -40 -9 1 6 18 33 40 l50 38 -48 -12 c-26 -7 -52
-29 -57 -50 -20 -77 -323 -189 -565 -209 -304 -25 -727 162 -1016 448 -129
128 -336 501 -320 579 12 59 193 112 291 85 76 -22 91 -20 126 12 58 52 73 21
83 -164 7 -125 3 -161 -16 -154 -14 6 -34 -8 -46 -29 -16 -31 -15 -43 8 -51
17 -7 24 -25 17 -43 -6 -17 -4 -30 6 -28 48 8 87 -5 87 -30 0 -37 170 -212
206 -212 15 0 44 -18 64 -40 20 -22 52 -40 71 -40 20 0 40 -11 45 -25 5 -14
16 0 24 30 12 45 4 63 -49 107 -132 112 -234 400 -216 617 10 124 54 245 70
195 6 -18 16 -19 33 -5 34 27 174 -108 219 -211 19 -43 49 -105 66 -138 39
-71 88 -168 108 -210 7 -16 30 -30 50 -30 19 0 39 -11 44 -25 5 -14 25 -25 45
-25 21 0 42 -8 48 -17 22 -36 135 -43 193 -12 84 43 78 90 -9 75 -63 -10 -192
40 -192 75 0 6 -31 49 -70 94 -106 123 -101 126 179 115 344 -14 559 65 735
268 34 40 110 126 170 192 59 66 130 170 157 230 l48 110 -54 -70 c-363 -463
-709 -637 -1132 -567 -75 13 -253 155 -253 203 0 12 -56 55 -125 95 -197 117
-285 222 -381 451 -35 86 -16 141 34 99 20 -16 32 -18 32 -5 0 12 -10 28 -21
35 -12 7 -17 26 -11 41 13 35 -21 38 -35 3 -6 -14 -6 10 0 53 6 43 2 97 -9
120 -32 72 -64 183 -64 224 0 22 -9 49 -21 61 -108 108 46 460 196 450 46 -3
65 4 65 25 0 22 13 26 55 14 66 -18 227 -5 254 20 12 11 10 18 -5 18 -17 0
-20 18 -12 55 18 74 18 74 76 32 63 -46 64 -58 7 -78 -40 -13 -38 -16 23 -23
146 -19 112 67 -68 169 -57 32 -311 46 -418 23 -56 -12 -60 31 -8 87 48 52
150 85 236 78 90 -8 340 -90 341 -112 0 -11 13 -4 30 18 23 31 29 33 29 7 0
-17 14 -37 31 -44 24 -9 29 -2 20 25 -7 21 -3 61 8 90 16 42 14 53 -9 53 -17
0 -30 8 -30 18 0 18 -172 111 -206 112 -8 0 -22 10 -30 21 -20 31 -84 52 -84
28 0 -10 -22 -19 -49 -19 -36 0 -47 8 -38 30 8 21 -2 30 -31 30 -24 0 -42 13
-42 30 0 19 -19 30 -50 30 -27 0 -50 7 -50 17 0 37 28 40 78 6 122 -83 197
-94 129 -20 -17 20 -34 70 -37 111 -3 42 -25 110 -49 151 -25 41 -35 75 -23
75 12 0 22 22 22 49 0 31 14 53 40 61 22 7 40 21 40 31 0 11 14 19 31 19 16 0
36 15 43 32 10 28 18 26 49 -15 31 -39 40 -42 56 -17 16 24 30 20 84 -30 36
-33 77 -71 92 -85 51 -46 63 -26 32 49 -67 161 -24 214 79 97 31 -34 35 -35
26 -6 -9 29 -2 33 35 24 25 -6 61 -14 80 -16 19 -3 67 -39 106 -79 39 -41 82
-74 94 -74 23 0 132 -157 134 -192 1 -10 28 -39 60 -65 l59 -46 0 61 c0 70 9
75 54 31 17 -17 44 -26 59 -21 16 6 62 -23 107 -68 44 -44 89 -80 101 -80 27
0 119 -92 119 -119 0 -12 -32 -21 -71 -21 -40 0 -91 -10 -114 -23 -23 -12 -90
-25 -149 -28 -189 -11 -386 -113 -386 -202 0 -37 101 -45 209 -15 332 92 546
80 653 -37 57 -63 118 -65 118 -4 0 69 36 3 60 -112 26 -122 17 -550 -13 -632
-20 -53 80 69 120 147 21 40 44 61 61 54 15 -6 43 10 62 36 33 45 34 43 24
-68 l-11 -114 92 134 c175 256 324 832 285 1106 -11 76 -26 257 -33 403 l-14
264 -105 143 c-202 273 -367 357 -1318 670 -216 71 -271 81 -540 97 -165 10
-313 23 -330 29 -16 6 -88 -15 -159 -45z m1758 -1818 c14 -30 29 -77 34 -105
l10 -50 -59 56 c-42 41 -56 69 -49 105 13 64 33 62 64 -6z m-2107 -517 c13
-49 -12 -87 -57 -88 -18 0 -20 64 -3 108 18 48 46 39 60 -20z"></path>
                <path d="M3096 4940 c26 -82 27 -158 4 -286 -23 -128 -22 -143 10 -167 44 -32
27 -82 -37 -106 -90 -34 -120 -202 -52 -288 51 -64 108 -72 89 -13 -16 51 9
51 123 -1 54 -25 104 -36 124 -27 27 12 24 17 -16 23 -116 20 -195 130 -141
195 14 17 24 68 22 115 -2 47 -5 162 -8 255 -6 176 -23 260 -55 260 -11 0 -19
14 -19 31 0 17 -8 26 -18 20 -10 -6 -22 -4 -27 4 -5 8 -4 2 1 -15z m12 -783
c-6 -9 -23 -17 -39 -17 -26 0 -27 17 -10 100 1 6 15 -7 31 -28 16 -21 24 -46
18 -55z"></path>
                <path d="M3860 4926 c-57 -20 -220 -130 -220 -148 0 -10 33 -18 72 -18 57 0
68 6 51 26 -15 19 -11 32 19 51 50 31 78 14 78 -47 0 -92 141 -108 209 -23 51
64 79 69 60 10 -11 -35 -7 -41 20 -30 19 7 52 3 74 -9 22 -12 45 -17 50 -12
13 14 -20 134 -38 135 -8 0 -53 18 -100 39 -81 37 -210 49 -275 26z"></path>
                <path d="M4514 4120 c-7 -27 -13 -72 -12 -100 1 -43 4 -41 21 17 10 37 16 82
12 100 -5 23 -11 18 -21 -17z"></path>
                <path d="M4461 3823 c-13 -49 -32 -112 -43 -140 -18 -52 -17 -51 27 7 25 33
61 75 80 95 38 38 47 65 15 45 -11 -7 -28 8 -38 34 -16 42 -19 39 -41 -41z"></path>
                <path d="M2820 3741 c0 -11 -13 -21 -30 -21 -16 0 -30 -9 -30 -20 0 -11 8 -20
18 -20 10 0 57 -37 104 -82 68 -65 96 -80 142 -73 32 5 62 1 68 -8 21 -34 59
-16 83 38 23 52 33 55 167 60 179 7 433 50 499 85 69 37 20 48 -102 22 -56
-12 -145 -22 -199 -22 -57 0 -109 -11 -124 -27 -18 -20 -42 -23 -86 -10 -33 9
-87 17 -121 17 -33 0 -70 9 -82 21 -12 12 -65 24 -119 27 -54 3 -118 12 -143
20 -28 9 -45 6 -45 -7z"></path>
                <path d="M3034 2160 c6 -22 20 -40 31 -40 11 0 14 -22 6 -52 -10 -41 -4 -53
28 -62 23 -6 41 -19 41 -28 0 -26 38 -22 156 13 57 17 104 40 104 53 0 12 15
33 33 46 48 35 21 94 -38 80 -103 -25 -185 -24 -247 2 -94 40 -126 36 -114
-12z"></path>
            </g>
        </svg>