<?xml version="1.0" standalone="no"?>
<!DOCTYPE svg PUBLIC "-//W3C//DTD SVG 20010904//EN"
 "http://www.w3.org/TR/2001/REC-SVG-20010904/DTD/svg10.dtd">
<svg version="1.0" xmlns="http://www.w3.org/2000/svg"
 width="896.000000pt" height="896.000000pt" viewBox="0 0 896.000000 896.000000"
 preserveAspectRatio="xMidYMid meet">
<metadata>
Created by potrace 1.11, written by Peter Selinger 2001-2013
</metadata>
<g transform="translate(0.000000,896.000000) scale(0.100000,-0.100000)"
fill="#000000" stroke="none">
<path d="M4235 8940 c-11 -4 -23 -6 -27 -4 -4 3 -9 0 -13 -6 -3 -5 -13 -10
-21 -10 -8 0 -36 -9 -62 -21 -159 -71 -193 -97 -284 -214 -48 -62 -86 -91
-129 -98 -13 -3 -44 -11 -69 -18 -25 -7 -47 -13 -50 -14 -76 -18 -204 -111
-290 -211 -42 -48 -116 -165 -145 -229 -49 -108 -57 -134 -101 -325 -14 -63
-30 -120 -34 -125 -16 -20 -25 -126 -45 -535 -4 -90 -14 -212 -19 -244 -1 -10
1 -42 6 -70 4 -28 10 -71 13 -96 12 -94 17 -125 20 -130 2 -3 6 -23 9 -45 12
-77 17 -100 22 -118 3 -10 7 -32 9 -49 4 -29 19 -84 32 -118 4 -8 7 -17 8 -20
1 -3 7 -18 13 -33 7 -16 12 -30 12 -32 0 -2 5 -16 12 -32 6 -15 12 -30 13 -33
1 -3 6 -20 10 -38 4 -18 12 -35 16 -38 5 -3 9 -12 9 -20 0 -8 17 -38 38 -67
43 -58 50 -74 83 -197 12 -47 40 -119 62 -160 64 -120 79 -225 34 -232 -19 -3
-22 -9 -21 -44 0 -35 35 -141 56 -169 4 -6 9 -24 12 -40 3 -17 8 -39 10 -50 2
-11 7 -42 10 -69 8 -55 29 -88 67 -105 37 -16 59 -63 130 -271 34 -102 71
-199 80 -217 42 -74 -17 -228 -131 -343 -66 -67 -153 -125 -202 -134 -15 -2
-31 -7 -36 -9 -9 -6 -68 -15 -142 -22 -152 -14 -223 -24 -300 -45 -48 -12
-850 -410 -935 -463 -51 -32 -166 -116 -175 -128 -8 -10 -235 -157 -264 -170
-14 -7 -26 -16 -26 -21 0 -4 -4 -8 -9 -8 -5 0 -48 -23 -96 -50 -48 -28 -89
-50 -91 -50 -23 0 -197 -133 -269 -205 -126 -126 -148 -156 -151 -213 -1 -19
-10 -42 -18 -51 -9 -10 -16 -22 -16 -27 0 -5 -28 -36 -61 -69 l-60 -60 4 -610
c3 -517 7 -650 17 -650 1 0 3 -12 5 -27 9 -66 40 -121 153 -271 211 -281 457
-450 897 -616 100 -38 327 -112 355 -117 173 -25 405 -28 2380 -28 2101 -1
2381 3 2444 36 13 7 16 7 12 -1 -9 -13 99 24 134 46 15 10 54 42 86 72 33 29
75 58 94 65 19 6 83 11 142 11 58 0 104 3 101 7 -2 5 7 4 20 -1 14 -6 27 -8
28 -6 2 2 28 6 57 9 78 9 97 15 174 57 38 21 93 50 123 64 51 26 110 81 184
174 33 43 34 44 36 160 10 416 18 633 31 801 26 343 2 486 -119 728 -18 35
-38 68 -44 74 -7 6 -13 15 -13 20 0 18 -124 171 -199 246 -99 98 -140 132
-226 190 -38 26 -79 55 -90 65 -11 10 -32 25 -47 33 -16 8 -28 19 -28 24 0 6
-6 10 -12 10 -12 0 -67 40 -128 93 -14 12 -43 35 -65 52 -22 16 -46 36 -55 45
-37 37 -192 141 -275 186 -49 26 -130 74 -180 107 -106 72 -217 136 -340 197
-49 25 -92 47 -95 50 -3 4 -20 12 -37 19 -18 8 -33 17 -33 21 0 4 -8 10 -17
13 -19 6 -62 31 -97 57 -12 8 -44 39 -72 67 l-52 53 -7 -28 c-17 -67 -22 -111
-30 -252 -9 -182 -21 -238 -58 -269 -21 -16 -22 -41 -3 -41 26 0 39 -28 31
-67 l-7 -37 -18 24 c-10 14 -21 23 -23 20 -2 -3 -15 -39 -27 -80 -12 -41 -39
-111 -60 -155 -38 -81 -122 -202 -147 -212 -7 -3 -13 -11 -13 -19 0 -8 -7 -14
-15 -14 -8 0 -15 -4 -15 -9 0 -5 -25 -20 -55 -35 -31 -14 -58 -34 -61 -44 -3
-9 -11 -28 -17 -42 -6 -14 -10 -30 -9 -37 3 -12 -48 -57 -97 -86 -28 -16 -31
-16 -31 -2 0 9 5 13 10 10 6 -3 10 -1 10 4 0 6 16 21 35 33 37 24 46 41 18 32
-56 -19 -84 -38 -104 -73 -11 -21 -39 -49 -61 -62 -22 -13 -46 -30 -53 -36 -7
-7 -20 -13 -27 -13 -8 0 -18 -4 -23 -8 -37 -32 -303 -109 -449 -129 -66 -10
-255 -10 -327 -1 -70 9 -241 55 -299 80 -14 6 -34 14 -45 18 -113 39 -432 223
-502 289 -12 12 -25 21 -28 21 -9 0 -83 67 -161 147 -68 68 -224 286 -224 311
0 7 -4 12 -8 12 -5 0 -23 30 -42 68 -18 37 -37 70 -42 73 -5 3 -10 10 -10 15
0 10 -4 20 -46 119 -16 39 -28 85 -27 103 2 44 41 80 105 97 3 1 19 7 35 15
44 18 202 22 249 6 48 -16 94 -11 121 14 11 10 32 23 47 29 23 9 27 7 37 -17
18 -45 30 -159 32 -314 1 -74 -4 -88 -31 -88 -22 0 -60 -45 -60 -70 0 -10 9
-24 21 -32 15 -10 21 -24 21 -51 0 -35 2 -38 27 -36 53 4 80 -11 101 -57 26
-59 184 -218 242 -243 23 -10 62 -35 86 -54 24 -20 61 -41 82 -47 22 -6 46
-17 54 -26 13 -13 16 -12 27 8 17 31 20 67 9 89 -6 10 -38 46 -72 82 -56 56
-158 208 -158 234 0 6 -7 24 -15 41 -9 17 -18 39 -20 49 -2 10 -8 31 -14 47
-11 27 -19 61 -37 146 -17 78 -8 360 12 392 3 4 7 16 9 25 11 58 38 95 49 68
6 -17 41 -20 51 -6 9 16 83 -30 140 -89 61 -61 108 -130 145 -211 14 -30 29
-57 35 -61 5 -4 7 -8 3 -8 -6 0 136 -285 168 -336 7 -12 31 -26 57 -32 28 -8
50 -21 61 -37 11 -17 26 -25 45 -25 15 0 44 -10 62 -23 59 -40 124 -47 220
-25 23 5 88 51 94 65 11 31 -6 40 -68 38 -34 -1 -66 1 -72 4 -5 3 -17 6 -25 6
-23 1 -92 26 -117 42 -12 8 -31 29 -41 47 -11 18 -27 41 -35 52 -73 87 -127
161 -127 176 0 9 10 20 23 24 12 4 146 8 297 9 151 1 289 5 305 9 17 4 41 9
55 11 14 2 27 4 30 5 3 2 8 2 12 1 13 -1 134 41 188 67 117 54 222 138 340
271 189 213 246 280 270 317 8 13 18 24 22 24 5 0 8 4 8 10 0 5 15 33 34 62
18 29 50 89 70 133 37 80 30 80 -29 0 -17 -22 -33 -42 -36 -45 -3 -3 -34 -39
-69 -80 -95 -112 -244 -255 -340 -326 -47 -35 -90 -68 -96 -73 -53 -44 -252
-134 -364 -165 -149 -41 -335 -50 -501 -23 -28 5 -109 41 -109 49 0 4 -5 8
-12 8 -16 0 -111 73 -154 119 -19 22 -43 54 -52 73 -12 23 -49 54 -127 105
-167 109 -211 142 -271 203 -55 56 -134 162 -134 179 0 5 -4 11 -8 13 -6 2
-83 150 -87 168 -1 3 -9 28 -17 57 -18 57 -18 74 1 96 11 14 16 13 47 -5 44
-26 54 -17 24 24 -14 20 -23 44 -22 65 1 23 -3 33 -13 33 -8 0 -15 -4 -15 -10
0 -5 -4 -10 -9 -10 -5 0 -8 42 -7 93 1 79 -3 101 -27 159 -30 73 -54 160 -62
226 -3 24 -13 57 -22 74 -10 17 -24 42 -32 57 -27 48 -19 164 18 261 49 130
132 225 213 246 28 8 54 11 58 9 14 -9 60 14 60 30 0 20 36 27 90 17 83 -15
248 -2 294 25 18 10 18 11 -2 31 -21 21 -22 55 -1 94 5 10 7 18 3 18 -3 0 -1
6 6 14 12 16 36 11 59 -12 8 -7 25 -20 38 -29 13 -9 28 -24 33 -34 8 -15 3
-21 -36 -41 l-47 -23 39 -7 c78 -13 143 2 144 33 0 16 -80 95 -133 131 -69 47
-124 66 -217 76 -82 8 -300 8 -361 0 -58 -8 -73 1 -65 39 7 30 59 86 106 115
70 42 214 61 290 38 19 -6 49 -13 65 -16 17 -2 76 -20 130 -39 55 -20 105 -37
111 -38 6 -2 23 -10 37 -20 34 -22 39 -22 61 8 22 29 36 32 36 8 1 -25 22 -51
45 -55 17 -3 19 4 21 57 0 33 2 62 3 65 2 4 8 31 12 57 4 22 -3 33 -20 33 -10
0 -34 15 -53 33 -35 33 -184 115 -219 120 -11 2 -41 19 -67 39 -59 44 -89 52
-102 28 -12 -22 -45 -29 -82 -17 -21 7 -26 14 -25 35 2 21 -3 27 -30 33 -36 7
-65 27 -58 39 7 12 -20 30 -52 36 -75 12 -89 24 -62 51 11 11 66 -1 79 -16 8
-10 64 -42 83 -48 9 -3 17 -9 17 -14 0 -5 8 -9 18 -9 10 0 22 -3 26 -7 4 -4
18 -9 32 -10 23 -3 25 -1 18 19 -3 12 -13 29 -21 37 -23 22 -37 61 -48 126 -3
22 -8 48 -11 57 -3 9 -7 26 -9 38 -2 12 -22 60 -44 108 -34 73 -38 87 -25 96
8 6 17 29 21 51 7 43 31 88 43 80 4 -2 23 11 43 30 19 19 47 37 61 41 15 3 36
20 47 36 l22 30 42 -48 42 -48 23 22 c37 34 30 38 171 -89 77 -70 95 -83 108
-75 10 6 9 18 -3 51 -5 11 -12 31 -16 45 -4 14 -11 34 -16 45 -4 11 -9 31 -11
45 -2 14 -6 34 -7 45 -5 28 12 55 34 55 10 0 43 -22 73 -50 59 -54 72 -60 62
-31 -9 30 8 33 86 16 81 -17 114 -36 214 -130 38 -36 74 -65 80 -65 29 -1 129
-128 170 -214 12 -28 32 -60 43 -72 24 -26 107 -94 114 -94 3 0 5 27 6 60 0
32 5 66 9 75 8 14 13 12 36 -9 37 -34 57 -44 90 -44 34 1 84 -32 162 -105 33
-31 74 -63 91 -71 73 -36 171 -139 155 -164 -4 -6 -32 -14 -62 -17 -90 -9
-112 -13 -158 -30 -54 -19 -107 -29 -211 -39 -115 -12 -194 -34 -289 -79 -75
-35 -80 -38 -131 -91 -76 -76 -52 -119 68 -121 37 0 73 3 80 8 6 5 12 7 12 4
0 -3 26 2 58 10 56 15 71 18 122 29 14 3 32 7 40 9 8 2 15 4 15 5 0 1 15 4 80
14 11 2 20 5 20 6 0 1 65 4 145 6 97 2 163 -1 200 -10 61 -14 136 -49 161 -75
63 -64 108 -93 139 -88 27 4 38 17 42 49 2 15 7 30 10 33 8 9 43 -70 53 -120
5 -22 10 -47 12 -55 18 -76 24 -470 9 -615 -11 -109 -15 -140 -21 -165 l-7
-25 27 25 c15 14 53 66 86 115 81 124 83 127 121 131 22 3 44 16 66 40 35 37
43 39 43 8 0 -22 -9 -147 -15 -195 l-4 -33 19 25 c11 13 29 41 41 62 12 20 25
37 30 37 4 0 8 6 8 13 0 7 8 22 18 33 43 48 126 220 188 392 25 70 48 136 50
146 2 10 8 33 13 50 32 98 70 271 86 381 3 22 9 63 13 90 10 67 9 302 -1 395
-13 120 -16 150 -22 235 -2 44 -7 112 -10 150 -4 64 -15 247 -18 335 -2 31
-18 67 -49 105 -4 5 -43 56 -86 112 -121 158 -194 231 -313 311 -74 50 -246
135 -380 189 -68 28 -133 54 -144 58 -11 5 -23 9 -27 9 -3 1 -10 4 -14 9 -4 4
-16 7 -26 7 -10 0 -18 5 -18 12 0 6 -3 9 -6 6 -6 -6 -99 24 -111 35 -3 4 -17
7 -29 7 -13 0 -26 5 -29 10 -3 6 -15 10 -26 10 -10 0 -27 4 -37 10 -16 9 -184
69 -207 74 -5 1 -93 30 -195 63 -177 59 -275 89 -316 97 -11 3 -39 9 -64 15
-51 11 -122 21 -195 26 -27 2 -86 6 -130 9 -44 4 -114 9 -155 12 -148 10 -270
21 -322 29 -13 2 -32 0 -43 -5z m2033 -2293 c30 -51 80 -217 66 -217 -4 0 -29
22 -56 50 -71 72 -88 124 -58 181 15 27 25 24 48 -14z m-2640 -630 c16 -19 32
-96 21 -103 -5 -3 -7 -9 -4 -14 3 -5 -8 -18 -23 -29 -24 -17 -32 -18 -46 -8
-31 23 -3 167 33 167 5 0 13 -6 19 -13z"/>
<path d="M4613 6155 c11 -43 14 -253 4 -295 -7 -27 -14 -76 -23 -156 -5 -46
-3 -53 25 -83 19 -20 31 -44 31 -61 0 -27 -26 -60 -48 -60 -7 0 -12 -4 -12
-10 0 -5 -6 -10 -12 -10 -25 -1 -86 -68 -95 -104 -13 -55 -19 -99 -17 -122 4
-45 27 -107 46 -128 10 -11 18 -23 18 -26 0 -3 18 -16 39 -28 46 -26 55 -19
56 43 0 27 4 39 13 37 7 -1 20 -4 30 -5 9 -2 37 -12 62 -24 78 -35 148 -54
182 -51 43 4 39 21 -7 30 -40 9 -100 39 -130 65 -23 21 -58 73 -49 73 4 0 2 6
-4 13 -13 16 -7 60 13 90 7 12 17 40 21 62 9 47 8 170 -1 185 -3 5 0 10 7 10
8 0 9 3 3 8 -6 4 -11 60 -12 126 -1 110 -7 212 -18 293 -7 50 -32 103 -49 103
-9 0 -19 14 -24 33 -7 25 -14 32 -34 32 -24 1 -25 0 -15 -40z m-14 -889 c27
-44 26 -64 -4 -78 -35 -16 -53 2 -48 50 7 73 20 80 52 28z"/>
<path d="M5577 6169 c-59 -16 -275 -157 -284 -186 -2 -6 6 -15 19 -19 24 -8
127 -9 134 -1 3 2 -1 17 -8 32 -11 25 -10 29 11 46 50 41 104 35 108 -12 5
-61 9 -74 34 -99 27 -26 37 -30 90 -32 50 -1 96 23 152 78 61 63 80 64 66 7
-5 -21 -9 -41 -9 -44 0 -4 17 -3 37 1 27 7 49 4 86 -10 73 -28 78 -22 56 62
-10 39 -22 75 -28 81 -5 5 -34 19 -63 30 -97 36 -163 59 -183 64 -36 8 -189
10 -218 2z"/>
<path d="M6381 5153 c-13 -49 -19 -143 -10 -149 9 -5 23 48 35 132 7 54 -12
67 -25 17z"/>
<path d="M6339 4868 c-1 -5 -2 -11 -4 -15 -1 -5 -5 -21 -10 -38 -4 -16 -12
-36 -18 -42 -5 -7 -7 -13 -4 -13 3 0 -8 -41 -24 -92 -15 -51 -27 -94 -25 -96
2 -2 25 24 50 57 26 33 52 66 59 73 59 62 83 106 51 94 -15 -6 -44 14 -44 31
0 12 -29 50 -31 41z"/>
<path d="M4258 4679 c-7 -11 -24 -22 -37 -24 -52 -10 -50 -21 15 -68 26 -18
130 -107 168 -142 23 -22 76 -36 118 -32 30 3 52 -2 75 -15 45 -27 67 -17 105
48 41 67 46 69 223 79 50 3 106 7 125 9 19 3 58 8 85 11 90 11 99 12 145 19
25 4 53 9 62 12 17 5 43 11 91 19 15 3 47 13 70 22 108 42 82 74 -40 49 -15
-3 -50 -8 -78 -12 -27 -3 -59 -8 -70 -11 -11 -2 -54 -6 -95 -8 -130 -7 -178
-16 -212 -39 -36 -24 -51 -25 -143 -7 -33 6 -87 14 -120 17 -33 3 -78 14 -100
24 -47 21 -85 31 -140 36 -99 9 -142 14 -165 19 -14 2 -35 7 -47 9 -14 3 -26
-2 -35 -15z"/>
<path d="M4534 2742 c-16 -10 -9 -38 20 -80 20 -29 24 -46 21 -82 -4 -51 5
-66 44 -75 16 -3 34 -17 41 -30 14 -26 24 -26 112 -6 112 26 205 65 213 90 3
10 21 34 39 55 34 36 40 66 18 88 -14 14 -61 16 -106 6 -100 -23 -208 -14
-311 26 -44 17 -74 20 -91 8z"/>
</g>
</svg>
